<svg xmlns="http://www.w3.org/2000/svg" width="1280" height="420" viewBox="0 0 1280 420" role="img" aria-label="NEXUS Core banner">
  <defs>
    <linearGradient id="bg" x1="0" y1="0" x2="1" y2="1">
      <stop offset="0%" stop-color="#070b14"/>
      <stop offset="45%" stop-color="#0f172a"/>
      <stop offset="100%" stop-color="#1e1b4b"/>
    </linearGradient>
    <linearGradient id="accent" x1="0" y1="0" x2="1" y2="0">
      <stop offset="0%" stop-color="#22d3ee"/>
      <stop offset="50%" stop-color="#818cf8"/>
      <stop offset="100%" stop-color="#c084fc"/>
    </linearGradient>
    <linearGradient id="orb" x1="0" y1="0" x2="1" y2="1">
      <stop offset="0%" stop-color="#22d3ee" stop-opacity="0.35"/>
      <stop offset="100%" stop-color="#6366f1" stop-opacity="0.05"/>
    </linearGradient>
    <filter id="soft" x="-20%" y="-20%" width="140%" height="140%">
      <feGaussianBlur stdDeviation="28"/>
    </filter>
  </defs>

  <!-- background -->
  <rect width="1280" height="420" fill="url(#bg)"/>
  <circle cx="1080" cy="60" r="180" fill="url(#orb)" filter="url(#soft)"/>
  <circle cx="180" cy="380" r="140" fill="#22d3ee" opacity="0.08" filter="url(#soft)"/>
  <circle cx="700" cy="40" r="90" fill="#c084fc" opacity="0.1" filter="url(#soft)"/>

  <!-- grid accent lines -->
  <g stroke="#334155" stroke-width="1" opacity="0.35">
    <path d="M0 300 H1280"/>
    <path d="M0 340 H1280"/>
    <path d="M920 0 V420"/>
    <path d="M1040 0 V420"/>
    <path d="M1160 0 V420"/>
  </g>

  <!-- logo mark -->
  <g transform="translate(64,48)">
    <rect width="56" height="56" rx="14" fill="#0f172a" stroke="url(#accent)" stroke-width="2"/>
    <path d="M14 36 L28 16 L42 36 Z" fill="none" stroke="#22d3ee" stroke-width="2.5" stroke-linejoin="round"/>
    <circle cx="28" cy="30" r="4" fill="#a78bfa"/>
    <path d="M18 40 H38" stroke="#818cf8" stroke-width="2" stroke-linecap="round"/>
  </g>

  <!-- wordmark -->
  <text x="140" y="78" font-family="ui-sans-serif, system-ui, -apple-system, Segoe UI, sans-serif" font-size="36" font-weight="800" fill="#f8fafc" letter-spacing="-0.02em">NEXUS Core</text>
  <text x="140" y="104" font-family="ui-sans-serif, system-ui, sans-serif" font-size="14" fill="#94a3b8" letter-spacing="0.18em">MULTI-AGENT · DURABLE · LOCAL-FIRST</text>

  <!-- main tagline -->
  <text x="64" y="180" font-family="ui-sans-serif, system-ui, sans-serif" font-size="34" font-weight="700" fill="#f1f5f9">Multi-agent tasks that</text>
  <text x="64" y="224" font-family="ui-sans-serif, system-ui, sans-serif" font-size="34" font-weight="700" fill="url(#accent)">resume after a crash</text>
  <text x="64" y="268" font-family="ui-sans-serif, system-ui, sans-serif" font-size="18" fill="#cbd5e1">with a rubric judge that checks real success criteria — not “the model said OK.”</text>

  <!-- feature pills -->
  <g font-family="ui-sans-serif, system-ui, sans-serif" font-size="13" font-weight="600">
    <rect x="64" y="304" width="148" height="36" rx="18" fill="#0f172a" stroke="#334155"/>
    <text x="138" y="327" text-anchor="middle" fill="#22d3ee">crash → resume</text>

    <rect x="228" y="304" width="140" height="36" rx="18" fill="#0f172a" stroke="#334155"/>
    <text x="298" y="327" text-anchor="middle" fill="#a78bfa">rubric judge</text>

    <rect x="384" y="304" width="118" height="36" rx="18" fill="#0f172a" stroke="#334155"/>
    <text x="443" y="327" text-anchor="middle" fill="#67e8f9">MCP tools</text>

    <rect x="518" y="304" width="150" height="36" rx="18" fill="#0f172a" stroke="#334155"/>
    <text x="593" y="327" text-anchor="middle" fill="#86efac">local LLM / CLI</text>

    <rect x="684" y="304" width="132" height="36" rx="18" fill="#0f172a" stroke="#334155"/>
    <text x="750" y="327" text-anchor="middle" fill="#fcd34d">one-command</text>
  </g>

  <!-- right-side mini flow -->
  <g transform="translate(900,120)">
    <rect width="320" height="220" rx="16" fill="#0b1220" stroke="#1e293b" stroke-width="1.5"/>
    <text x="20" y="32" font-family="ui-monospace, SFMono-Regular, Menlo, monospace" font-size="12" fill="#64748b">// 60s proof</text>

    <rect x="20" y="52" width="90" height="40" rx="8" fill="#1e293b" stroke="#334155"/>
    <text x="65" y="77" text-anchor="middle" font-family="ui-monospace, monospace" font-size="12" fill="#93c5fd">plan</text>

    <path d="M118 72 H138" stroke="#475569" stroke-width="2"/>
    <polygon points="138,68 148,72 138,76" fill="#475569"/>

    <rect x="152" y="52" width="90" height="40" rx="8" fill="#3f1212" stroke="#f87171"/>
    <text x="197" y="77" text-anchor="middle" font-family="ui-monospace, monospace" font-size="12" fill="#fca5a5">kill -9</text>

    <path d="M250 72 H270" stroke="#475569" stroke-width="2"/>
    <polygon points="270,68 280,72 270,76" fill="#475569"/>

    <rect x="20" y="112" width="280" height="40" rx="8" fill="#0f291a" stroke="#4ade80"/>
    <text x="160" y="137" text-anchor="middle" font-family="ui-monospace, monospace" font-size="13" fill="#86efac">resume → completed 10/10</text>

    <rect x="20" y="168" width="280" height="36" rx="8" fill="#1a1530" stroke="#a78bfa"/>
    <text x="160" y="191" text-anchor="middle" font-family="ui-sans-serif, system-ui, sans-serif" font-size="12" fill="#c4b5fd">judge: criteria + artifacts ✓</text>
  </g>

  <!-- footer strip -->
  <rect y="388" width="1280" height="32" fill="#020617" opacity="0.85"/>
  <text x="64" y="409" font-family="ui-monospace, monospace" font-size="12" fill="#64748b">make install &amp;&amp; make start &amp;&amp; make demo</text>
  <text x="1216" y="409" text-anchor="end" font-family="ui-sans-serif, system-ui, sans-serif" font-size="12" fill="#475569">MIT · Python 3.10+</text>
</svg>
